<?xml version="1.0" standalone="no"?><svg xmlns:xlink="http://www.w3.org/1999/xlink" xmlns="http://www.w3.org/2000/svg" viewBox="0 0 1000 583.3360007682213" preserveAspectRatio="xMaxYMax slice"><g transform="scale(1.2803687461989053)"><rect x="0" y="0" width="781.0285714285715" height="455.6" fill="#ffffff"/><rect x="65.08571428571429" y="0" width="65.08571428571429" height="65.08571428571429" fill="#ffffff"/><path d="M 97.63 0 A 32.54 32.54 0 0 1  130.17 32.54 L 97.63 0 A 32.54 32.54 0 0 0 130.17 32.54" fill="#d4f9d2"/><path d="M 65.09 32.54 A 32.54 32.54 0 0 1  97.63 65.08 L 65.09 32.54 A 32.54 32.54 0 0 0 97.63 65.08" fill="#ebfcea"/><path d="M 130.17 0 A 65.09 65.09 0 0 1  195.26 65.09 L 130.17 0 A 65.09 65.09 0 0 0 195.26 65.09" fill="#d0fffd"/><rect x="520.6857142857143" y="0" width="65.08571428571429" height="65.08571428571429" fill="#ffffff"/><path d="M 553.23 0 A 32.54 32.54 0 0 1  585.77 32.54 L 553.23 0 A 32.54 32.54 0 0 0 585.77 32.54" fill="#b6f5b3"/><path d="M 520.69 32.54 A 32.54 32.54 0 0 1  553.23 65.08 L 520.69 32.54 A 32.54 32.54 0 0 0 553.23 65.08" fill="#a8fffb"/><rect x="715.9428571428572" y="0" width="65.08571428571429" height="65.08571428571429" fill="#ffffff"/><path d="M 0 65.09 A 65.09 65.09 0 0 1  65.09 130.18 L 0 65.09 A 65.09 65.09 0 0 0 65.09 130.18" fill="#59e951"/><rect x="715.9428571428572" y="65.08571428571429" width="65.08571428571429" height="65.08571428571429" fill="#ffffff"/><path d="M 715.94 130.17 A 32.54 32.54 0 0 1  748.48 97.63 L 715.94 130.17 A 32.54 32.54 0 0 0 748.48 97.63" fill="#86fff9"/><path d="M 65.09 195.26 A 65.09 65.09 0 0 1  130.18 130.17 L 65.09 195.26 A 65.09 65.09 0 0 0 130.18 130.17" fill="#63ea5b"/><rect x="195.25714285714287" y="130.17142857142858" width="65.08571428571429" height="65.08571428571429" fill="#ffffff"/><path d="M 227.8 130.17 A 32.54 32.54 0 0 1  260.34000000000003 162.70999999999998 L 227.8 130.17 A 32.54 32.54 0 0 0 260.34000000000003 162.70999999999998" fill="#b5f5b2"/><path d="M 227.8 195.25 A 32.54 32.54 0 0 1  260.34000000000003 162.71 L 227.8 195.25 A 32.54 32.54 0 0 0 260.34000000000003 162.71" fill="#b1f5ad"/><rect x="650.8571428571429" y="130.17142857142858" width="65.08571428571429" height="65.08571428571429" fill="#ffffff"/><path d="M 650.86 162.71 A 32.54 32.54 0 0 1  683.4 195.25 L 650.86 162.71 A 32.54 32.54 0 0 0 683.4 195.25" fill="#a1fffa"/><path d="M 65.09 260.35 A 65.09 65.09 0 0 1  130.18 195.26 L 65.09 260.35 A 65.09 65.09 0 0 0 130.18 195.26" fill="#54fff7"/><path d="M 260.34 195.26 A 65.09 65.09 0 0 1  325.42999999999995 260.35 L 260.34 195.26 A 65.09 65.09 0 0 0 325.42999999999995 260.35" fill="#f8fef8"/><rect x="325.42857142857144" y="195.25714285714287" width="65.08571428571429" height="65.08571428571429" fill="#ffffff"/><path d="M 325.43 195.26 A 32.54 32.54 0 0 1  357.97 227.79999999999998 L 325.43 195.26 A 32.54 32.54 0 0 0 357.97 227.79999999999998" fill="#e4fbe2"/><path d="M 357.97 195.26 A 32.54 32.54 0 0 1  390.51000000000005 227.79999999999998 L 357.97 195.26 A 32.54 32.54 0 0 0 390.51000000000005 227.79999999999998" fill="#ecfceb"/><path d="M 325.43 227.8 A 32.54 32.54 0 0 1  357.97 260.34000000000003 L 325.43 227.8 A 32.54 32.54 0 0 0 357.97 260.34000000000003" fill="#82ef7c"/><path d="M 390.51 260.35 A 65.09 65.09 0 0 1  455.6 195.26 L 390.51 260.35 A 65.09 65.09 0 0 0 455.6 195.26" fill="#b9f6b5"/><rect x="585.7714285714286" y="195.25714285714287" width="65.08571428571429" height="65.08571428571429" fill="#ffffff"/><path d="M 585.77 260.34000000000003 A 32.54 32.54 0 0 1  618.31 227.8 L 585.77 260.34000000000003 A 32.54 32.54 0 0 0 618.31 227.8" fill="#b9fffc"/><rect x="65.08571428571429" y="260.34285714285716" width="65.08571428571429" height="65.08571428571429" fill="#ffffff"/><path d="M 65.09 292.89 A 32.54 32.54 0 0 1  97.63 325.43 L 65.09 292.89 A 32.54 32.54 0 0 0 97.63 325.43" fill="#f0fdef"/><path d="M 97.63 292.89 A 32.54 32.54 0 0 1  130.17 325.43 L 97.63 292.89 A 32.54 32.54 0 0 0 130.17 325.43" fill="#52e84a"/><path d="M 195.26 325.42999999999995 A 65.09 65.09 0 0 1  260.35 260.34 L 195.26 325.42999999999995 A 65.09 65.09 0 0 0 260.35 260.34" fill="#79fff8"/><rect x="585.7714285714286" y="260.34285714285716" width="65.08571428571429" height="65.08571428571429" fill="#ffffff"/><path d="M 585.77 260.34 A 32.54 32.54 0 0 1  618.31 292.88 L 585.77 260.34 A 32.54 32.54 0 0 0 618.31 292.88" fill="#5bfff7"/><path d="M 715.94 260.34 A 65.09 65.09 0 0 1  781.0300000000001 325.42999999999995 L 715.94 260.34 A 65.09 65.09 0 0 0 781.0300000000001 325.42999999999995" fill="#6bec64"/><path d="M 455.6 390.52 A 65.09 65.09 0 0 1  520.69 325.43 L 455.6 390.52 A 65.09 65.09 0 0 0 520.69 325.43" fill="#9ffffa"/><rect x="260.34285714285716" y="390.51428571428573" width="65.08571428571429" height="65.08571428571429" fill="#ffffff"/><path d="M 292.89 390.51 A 32.54 32.54 0 0 1  325.43 423.05 L 292.89 390.51 A 32.54 32.54 0 0 0 325.43 423.05" fill="#a7fffb"/><rect x="325.42857142857144" y="390.51428571428573" width="65.08571428571429" height="65.08571428571429" fill="#ffffff"/><rect x="585.7714285714286" y="390.51428571428573" width="65.08571428571429" height="65.08571428571429" fill="#ffffff"/><path d="M 715.94 455.6 A 65.09 65.09 0 0 1  781.0300000000001 390.51 L 715.94 455.6 A 65.09 65.09 0 0 0 781.0300000000001 390.51" fill="#a0f39c"/></g></svg>